<svg width="742" height="47" viewBox="0 0 742 47" fill="none" xmlns="http://www.w3.org/2000/svg">
<path id="Computer Science Careers Society" d="M17.392 2.744C15.28 2.744 13.376 3.112 11.68 3.848C10.016 4.552 8.608 5.576 7.456 6.92C6.304 8.232 5.424 9.816 4.816 11.672C4.208 13.496 3.904 15.528 3.904 17.768C3.904 20.84 4.384 23.528 5.344 25.832C6.304 28.104 7.744 29.864 9.664 31.112C11.616 32.36 14.032 32.984 16.912 32.984C18.576 32.984 20.112 32.856 21.52 32.6C22.928 32.344 24.224 32.024 25.408 31.64V34.04C24.256 34.488 22.96 34.84 21.52 35.096C20.112 35.352 18.464 35.48 16.576 35.48C13.152 35.48 10.272 34.744 7.936 33.272C5.632 31.8 3.888 29.736 2.704 27.08C1.552 24.424 0.976 21.32 0.976 17.768C0.976 15.24 1.344 12.904 2.08 10.76C2.816 8.616 3.888 6.76 5.296 5.192C6.704 3.624 8.416 2.408 10.432 1.544C12.48 0.679998 14.816 0.247998 17.44 0.247998C19.072 0.247998 20.64 0.407998 22.144 0.727998C23.68 1.048 25.104 1.512 26.416 2.12L25.312 4.568C24.096 3.96 22.816 3.512 21.472 3.224C20.16 2.904 18.8 2.744 17.392 2.744ZM53.4903 22.232C53.4903 24.216 53.2343 26.024 52.7223 27.656C52.2423 29.256 51.5063 30.648 50.5143 31.832C49.5543 32.984 48.3543 33.88 46.9143 34.52C45.4743 35.16 43.8263 35.48 41.9703 35.48C40.2103 35.48 38.6263 35.176 37.2183 34.568C35.8423 33.928 34.6583 33.032 33.6663 31.88C32.6743 30.696 31.9223 29.288 31.4103 27.656C30.8983 26.024 30.6423 24.216 30.6423 22.232C30.6423 19.448 31.0903 17.08 31.9863 15.128C32.9143 13.144 34.2423 11.624 35.9703 10.568C37.7303 9.512 39.8103 8.984 42.2103 8.984C44.6423 8.984 46.6903 9.544 48.3543 10.664C50.0503 11.752 51.3303 13.288 52.1943 15.272C53.0583 17.256 53.4903 19.576 53.4903 22.232ZM33.4743 22.232C33.4743 24.408 33.7783 26.328 34.3863 27.992C34.9943 29.624 35.9383 30.888 37.2183 31.784C38.4983 32.68 40.0983 33.128 42.0182 33.128C44.0023 33.128 45.6343 32.68 46.9143 31.784C48.1943 30.856 49.1383 29.576 49.7463 27.944C50.3543 26.28 50.6583 24.376 50.6583 22.232C50.6583 20.088 50.3703 18.2 49.7943 16.568C49.2183 14.936 48.3063 13.656 47.0583 12.728C45.8103 11.8 44.1783 11.336 42.1623 11.336C39.2503 11.336 37.0743 12.296 35.6343 14.216C34.1943 16.136 33.4743 18.808 33.4743 22.232ZM87.0828 8.984C89.6428 8.984 91.6268 9.704 93.0348 11.144C94.4748 12.584 95.1948 14.856 95.1948 17.96V35H92.4588V18.056C92.4588 15.784 91.9468 14.104 90.9228 13.016C89.8988 11.896 88.5068 11.336 86.7468 11.336C84.2828 11.336 82.3948 12.056 81.0828 13.496C79.8028 14.904 79.1628 17.096 79.1628 20.072V35H76.4268V18.056C76.4268 16.52 76.1868 15.256 75.7068 14.264C75.2588 13.272 74.6028 12.536 73.7388 12.056C72.9068 11.576 71.8828 11.336 70.6668 11.336C69.0668 11.336 67.7068 11.672 66.5868 12.344C65.4668 13.016 64.6028 14.024 63.9948 15.368C63.4188 16.712 63.1308 18.424 63.1308 20.504V35H60.4428V9.464H62.6028L63.0348 13.544H63.1788C63.6268 12.68 64.2028 11.912 64.9068 11.24C65.6428 10.568 66.5228 10.024 67.5468 9.608C68.5708 9.192 69.7388 8.984 71.0508 8.984C72.9388 8.984 74.5228 9.384 75.8028 10.184C77.0828 10.984 77.9788 12.184 78.4908 13.784H78.6828C79.4188 12.248 80.5068 11.064 81.9468 10.232C83.4188 9.4 85.1308 8.984 87.0828 8.984ZM114.711 8.984C117.975 8.984 120.519 10.088 122.343 12.296C124.199 14.504 125.127 17.768 125.127 22.088C125.127 24.968 124.695 27.416 123.831 29.432C122.967 31.416 121.735 32.92 120.135 33.944C118.567 34.968 116.679 35.48 114.471 35.48C112.967 35.48 111.655 35.256 110.535 34.808C109.415 34.36 108.487 33.768 107.751 33.032C107.015 32.296 106.439 31.48 106.023 30.584H105.831C105.895 31.384 105.943 32.264 105.975 33.224C106.007 34.152 106.023 35.016 106.023 35.816V46.328H103.287V9.464H105.543L105.879 14.264H106.023C106.439 13.336 107.031 12.472 107.799 11.672C108.567 10.872 109.511 10.232 110.631 9.752C111.783 9.24 113.143 8.984 114.711 8.984ZM114.327 11.336C112.439 11.336 110.887 11.736 109.671 12.536C108.455 13.336 107.543 14.52 106.935 16.088C106.327 17.624 106.023 19.528 106.023 21.8V22.28C106.023 24.68 106.311 26.696 106.887 28.328C107.495 29.928 108.391 31.128 109.575 31.928C110.791 32.728 112.311 33.128 114.135 33.128C115.927 33.128 117.415 32.696 118.599 31.832C119.815 30.936 120.727 29.672 121.335 28.04C121.975 26.376 122.295 24.392 122.295 22.088C122.295 18.6 121.639 15.944 120.327 14.12C119.015 12.264 117.015 11.336 114.327 11.336ZM152.133 9.464V35H149.877L149.493 30.632H149.349C148.901 31.56 148.261 32.392 147.429 33.128C146.629 33.864 145.669 34.44 144.549 34.856C143.429 35.272 142.133 35.48 140.661 35.48C138.677 35.48 137.013 35.144 135.669 34.472C134.357 33.768 133.365 32.728 132.693 31.352C132.021 29.976 131.685 28.264 131.685 26.216V9.464H134.421V25.976C134.421 28.408 134.965 30.216 136.053 31.4C137.173 32.552 138.805 33.128 140.949 33.128C142.837 33.128 144.405 32.776 145.653 32.072C146.901 31.336 147.829 30.248 148.437 28.808C149.077 27.368 149.397 25.576 149.397 23.432V9.464H152.133ZM167.768 33.176C168.472 33.176 169.144 33.128 169.784 33.032C170.424 32.904 170.984 32.76 171.464 32.6V34.808C170.984 35 170.376 35.16 169.64 35.288C168.936 35.416 168.184 35.48 167.384 35.48C165.976 35.48 164.776 35.224 163.784 34.712C162.792 34.168 162.024 33.336 161.48 32.216C160.968 31.096 160.712 29.656 160.712 27.896V11.672H156.968V10.136L160.712 9.272L161.72 3.368H163.448V9.464H171.32V11.672H163.448V27.8C163.448 29.56 163.8 30.904 164.504 31.832C165.208 32.728 166.296 33.176 167.768 33.176ZM186.528 8.984C188.736 8.984 190.56 9.496 192 10.52C193.472 11.512 194.576 12.888 195.312 14.648C196.08 16.408 196.464 18.44 196.464 20.744V22.568H178.224C178.224 25.992 179.008 28.6 180.576 30.392C182.176 32.184 184.432 33.08 187.344 33.08C188.944 33.08 190.336 32.952 191.52 32.696C192.704 32.44 194 31.992 195.408 31.352V33.848C194.128 34.424 192.864 34.84 191.616 35.096C190.368 35.352 188.912 35.48 187.248 35.48C184.72 35.48 182.56 34.952 180.768 33.896C179.008 32.84 177.664 31.336 176.736 29.384C175.84 27.4 175.392 25.096 175.392 22.472C175.392 19.848 175.824 17.528 176.688 15.512C177.552 13.496 178.816 11.912 180.48 10.76C182.144 9.576 184.16 8.984 186.528 8.984ZM186.528 11.288C184.16 11.288 182.256 12.072 180.816 13.64C179.376 15.176 178.528 17.4 178.272 20.312H193.632C193.632 18.52 193.376 16.952 192.864 15.608C192.352 14.264 191.568 13.208 190.512 12.44C189.488 11.672 188.16 11.288 186.528 11.288ZM213.829 9.032C214.469 9.032 215.077 9.08 215.653 9.176C216.261 9.24 216.805 9.336 217.285 9.464L216.901 11.96C216.389 11.832 215.877 11.736 215.365 11.672C214.853 11.576 214.293 11.528 213.685 11.528C212.533 11.528 211.493 11.752 210.565 12.2C209.637 12.648 208.837 13.288 208.165 14.12C207.493 14.952 206.981 15.944 206.629 17.096C206.277 18.248 206.101 19.544 206.101 20.984V35H203.365V9.464H205.669L205.957 14.264H206.101C206.517 13.272 207.077 12.392 207.781 11.624C208.517 10.824 209.397 10.2 210.421 9.752C211.445 9.272 212.581 9.032 213.829 9.032ZM254.26 26.12C254.26 28.168 253.748 29.896 252.724 31.304C251.732 32.68 250.34 33.72 248.548 34.424C246.756 35.128 244.724 35.48 242.452 35.48C241.044 35.48 239.78 35.4 238.66 35.24C237.54 35.112 236.516 34.952 235.588 34.76C234.66 34.536 233.828 34.28 233.092 33.992V31.208C234.308 31.688 235.716 32.12 237.316 32.504C238.916 32.856 240.676 33.032 242.596 33.032C244.356 33.032 245.892 32.776 247.204 32.264C248.548 31.752 249.588 31 250.324 30.008C251.092 29.016 251.476 27.768 251.476 26.264C251.476 24.888 251.156 23.768 250.516 22.904C249.908 22.04 248.948 21.288 247.636 20.648C246.356 19.976 244.708 19.304 242.692 18.632C241.252 18.12 239.956 17.592 238.804 17.048C237.684 16.504 236.724 15.864 235.924 15.128C235.124 14.392 234.516 13.528 234.1 12.536C233.684 11.544 233.476 10.344 233.476 8.936C233.476 7.048 233.956 5.464 234.916 4.184C235.876 2.904 237.172 1.928 238.804 1.256C240.468 0.583999 242.34 0.247998 244.42 0.247998C246.084 0.247998 247.668 0.407998 249.172 0.727998C250.676 1.016 252.1 1.464 253.444 2.072L252.532 4.472C251.188 3.896 249.828 3.464 248.452 3.176C247.076 2.888 245.7 2.744 244.324 2.744C242.724 2.744 241.316 2.984 240.1 3.464C238.916 3.912 237.988 4.6 237.316 5.528C236.644 6.424 236.308 7.544 236.308 8.888C236.308 10.36 236.628 11.544 237.268 12.44C237.908 13.336 238.836 14.088 240.052 14.696C241.268 15.272 242.756 15.864 244.516 16.472C246.532 17.176 248.26 17.928 249.7 18.728C251.172 19.496 252.292 20.456 253.06 21.608C253.86 22.76 254.26 24.264 254.26 26.12ZM271.151 35.48C268.655 35.48 266.527 34.968 264.767 33.944C263.039 32.888 261.711 31.384 260.783 29.432C259.887 27.48 259.439 25.128 259.439 22.376C259.439 19.496 259.951 17.064 260.975 15.08C262.031 13.096 263.471 11.592 265.295 10.568C267.119 9.512 269.263 8.984 271.727 8.984C272.943 8.984 274.079 9.112 275.135 9.368C276.223 9.592 277.183 9.896 278.015 10.28L277.295 12.584C276.431 12.232 275.503 11.96 274.511 11.768C273.519 11.544 272.575 11.432 271.679 11.432C269.631 11.432 267.903 11.88 266.495 12.776C265.119 13.64 264.063 14.888 263.327 16.52C262.623 18.152 262.271 20.104 262.271 22.376C262.271 24.488 262.575 26.36 263.183 27.992C263.823 29.592 264.799 30.84 266.111 31.736C267.423 32.632 269.103 33.08 271.151 33.08C272.399 33.08 273.567 32.952 274.655 32.696C275.775 32.44 276.799 32.104 277.727 31.688V34.184C276.895 34.536 275.935 34.84 274.847 35.096C273.759 35.352 272.527 35.48 271.151 35.48ZM286.443 9.464V35H283.755V9.464H286.443ZM285.099 0.00799847C285.707 0.00799847 286.171 0.199999 286.491 0.584C286.811 0.935999 286.971 1.432 286.971 2.072C286.971 2.744 286.811 3.272 286.491 3.656C286.171 4.008 285.707 4.184 285.099 4.184C284.523 4.184 284.075 4.008 283.755 3.656C283.435 3.272 283.275 2.744 283.275 2.072C283.275 1.432 283.435 0.935999 283.755 0.584C284.075 0.199999 284.523 0.00799847 285.099 0.00799847ZM304.56 8.984C306.768 8.984 308.592 9.496 310.032 10.52C311.504 11.512 312.608 12.888 313.344 14.648C314.112 16.408 314.496 18.44 314.496 20.744V22.568H296.256C296.256 25.992 297.04 28.6 298.608 30.392C300.208 32.184 302.464 33.08 305.376 33.08C306.976 33.08 308.368 32.952 309.552 32.696C310.736 32.44 312.032 31.992 313.44 31.352V33.848C312.16 34.424 310.896 34.84 309.648 35.096C308.4 35.352 306.944 35.48 305.28 35.48C302.752 35.48 300.592 34.952 298.8 33.896C297.04 32.84 295.696 31.336 294.768 29.384C293.872 27.4 293.424 25.096 293.424 22.472C293.424 19.848 293.856 17.528 294.72 15.512C295.584 13.496 296.848 11.912 298.512 10.76C300.176 9.576 302.192 8.984 304.56 8.984ZM304.56 11.288C302.192 11.288 300.288 12.072 298.848 13.64C297.408 15.176 296.56 17.4 296.304 20.312H311.664C311.664 18.52 311.408 16.952 310.896 15.608C310.384 14.264 309.6 13.208 308.544 12.44C307.52 11.672 306.192 11.288 304.56 11.288ZM332.82 8.984C335.732 8.984 337.956 9.736 339.492 11.24C341.028 12.744 341.796 15.112 341.796 18.344V35H339.108V18.488C339.108 16.024 338.548 14.216 337.428 13.064C336.308 11.912 334.66 11.336 332.484 11.336C329.7 11.336 327.604 12.152 326.196 13.784C324.788 15.416 324.084 17.848 324.084 21.08V35H321.396V9.464H323.556L323.988 13.88H324.132C324.612 12.952 325.252 12.12 326.052 11.384C326.852 10.648 327.812 10.072 328.932 9.656C330.084 9.208 331.38 8.984 332.82 8.984ZM360.167 35.48C357.671 35.48 355.543 34.968 353.783 33.944C352.055 32.888 350.727 31.384 349.799 29.432C348.903 27.48 348.455 25.128 348.455 22.376C348.455 19.496 348.967 17.064 349.991 15.08C351.047 13.096 352.487 11.592 354.311 10.568C356.135 9.512 358.279 8.984 360.743 8.984C361.959 8.984 363.095 9.112 364.151 9.368C365.239 9.592 366.199 9.896 367.031 10.28L366.311 12.584C365.447 12.232 364.519 11.96 363.527 11.768C362.535 11.544 361.591 11.432 360.695 11.432C358.647 11.432 356.919 11.88 355.511 12.776C354.135 13.64 353.079 14.888 352.343 16.52C351.639 18.152 351.287 20.104 351.287 22.376C351.287 24.488 351.591 26.36 352.199 27.992C352.839 29.592 353.815 30.84 355.127 31.736C356.439 32.632 358.119 33.08 360.167 33.08C361.415 33.08 362.583 32.952 363.671 32.696C364.791 32.44 365.815 32.104 366.743 31.688V34.184C365.911 34.536 364.951 34.84 363.863 35.096C362.775 35.352 361.543 35.48 360.167 35.48ZM382.419 8.984C384.627 8.984 386.451 9.496 387.891 10.52C389.363 11.512 390.467 12.888 391.203 14.648C391.971 16.408 392.355 18.44 392.355 20.744V22.568H374.115C374.115 25.992 374.899 28.6 376.467 30.392C378.067 32.184 380.323 33.08 383.235 33.08C384.835 33.08 386.227 32.952 387.411 32.696C388.595 32.44 389.891 31.992 391.299 31.352V33.848C390.019 34.424 388.755 34.84 387.507 35.096C386.259 35.352 384.803 35.48 383.139 35.48C380.611 35.48 378.451 34.952 376.659 33.896C374.899 32.84 373.555 31.336 372.627 29.384C371.731 27.4 371.283 25.096 371.283 22.472C371.283 19.848 371.715 17.528 372.579 15.512C373.443 13.496 374.707 11.912 376.371 10.76C378.035 9.576 380.051 8.984 382.419 8.984ZM382.419 11.288C380.051 11.288 378.147 12.072 376.707 13.64C375.267 15.176 374.419 17.4 374.163 20.312H389.523C389.523 18.52 389.267 16.952 388.755 15.608C388.243 14.264 387.459 13.208 386.403 12.44C385.379 11.672 384.051 11.288 382.419 11.288ZM426.892 2.744C424.78 2.744 422.876 3.112 421.18 3.848C419.516 4.552 418.108 5.576 416.956 6.92C415.804 8.232 414.924 9.816 414.316 11.672C413.708 13.496 413.404 15.528 413.404 17.768C413.404 20.84 413.884 23.528 414.844 25.832C415.804 28.104 417.244 29.864 419.164 31.112C421.116 32.36 423.532 32.984 426.412 32.984C428.076 32.984 429.612 32.856 431.02 32.6C432.428 32.344 433.724 32.024 434.908 31.64V34.04C433.756 34.488 432.46 34.84 431.02 35.096C429.612 35.352 427.964 35.48 426.076 35.48C422.652 35.48 419.772 34.744 417.436 33.272C415.132 31.8 413.388 29.736 412.204 27.08C411.052 24.424 410.476 21.32 410.476 17.768C410.476 15.24 410.844 12.904 411.58 10.76C412.316 8.616 413.388 6.76 414.796 5.192C416.204 3.624 417.916 2.408 419.932 1.544C421.98 0.679998 424.316 0.247998 426.94 0.247998C428.572 0.247998 430.14 0.407998 431.644 0.727998C433.18 1.048 434.604 1.512 435.916 2.12L434.812 4.568C433.596 3.96 432.316 3.512 430.972 3.224C429.66 2.904 428.3 2.744 426.892 2.744ZM450.654 9.032C453.534 9.032 455.678 9.736 457.086 11.144C458.494 12.552 459.198 14.792 459.198 17.864V35H457.134L456.654 30.68H456.51C455.902 31.64 455.198 32.488 454.398 33.224C453.63 33.928 452.686 34.488 451.566 34.904C450.478 35.288 449.134 35.48 447.534 35.48C445.934 35.48 444.542 35.208 443.358 34.664C442.174 34.088 441.262 33.272 440.622 32.216C439.982 31.16 439.662 29.864 439.662 28.328C439.662 25.8 440.702 23.88 442.782 22.568C444.862 21.224 447.886 20.456 451.854 20.264L456.51 20.072V18.248C456.51 15.72 455.998 13.944 454.974 12.92C453.982 11.864 452.494 11.336 450.51 11.336C449.198 11.336 447.934 11.512 446.718 11.864C445.534 12.184 444.334 12.648 443.118 13.256L442.254 11.096C443.438 10.488 444.75 9.992 446.19 9.608C447.63 9.224 449.118 9.032 450.654 9.032ZM452.142 22.28C448.91 22.44 446.494 23.016 444.894 24.008C443.294 24.968 442.494 26.424 442.494 28.376C442.494 29.944 442.99 31.144 443.982 31.976C444.974 32.776 446.318 33.176 448.014 33.176C450.734 33.176 452.814 32.424 454.254 30.92C455.726 29.416 456.478 27.304 456.51 24.584V22.088L452.142 22.28ZM477.829 9.032C478.469 9.032 479.077 9.08 479.653 9.176C480.261 9.24 480.805 9.336 481.285 9.464L480.901 11.96C480.389 11.832 479.877 11.736 479.365 11.672C478.853 11.576 478.293 11.528 477.685 11.528C476.533 11.528 475.493 11.752 474.565 12.2C473.637 12.648 472.837 13.288 472.165 14.12C471.493 14.952 470.981 15.944 470.629 17.096C470.277 18.248 470.101 19.544 470.101 20.984V35H467.365V9.464H469.669L469.957 14.264H470.101C470.517 13.272 471.077 12.392 471.781 11.624C472.517 10.824 473.397 10.2 474.421 9.752C475.445 9.272 476.581 9.032 477.829 9.032ZM494.966 8.984C497.174 8.984 498.998 9.496 500.438 10.52C501.91 11.512 503.014 12.888 503.75 14.648C504.518 16.408 504.902 18.44 504.902 20.744V22.568H486.662C486.662 25.992 487.446 28.6 489.014 30.392C490.614 32.184 492.87 33.08 495.782 33.08C497.382 33.08 498.774 32.952 499.958 32.696C501.142 32.44 502.438 31.992 503.846 31.352V33.848C502.566 34.424 501.302 34.84 500.054 35.096C498.806 35.352 497.35 35.48 495.686 35.48C493.158 35.48 490.998 34.952 489.206 33.896C487.446 32.84 486.102 31.336 485.174 29.384C484.278 27.4 483.83 25.096 483.83 22.472C483.83 19.848 484.262 17.528 485.126 15.512C485.99 13.496 487.254 11.912 488.918 10.76C490.582 9.576 492.598 8.984 494.966 8.984ZM494.966 11.288C492.598 11.288 490.694 12.072 489.254 13.64C487.814 15.176 486.966 17.4 486.71 20.312H502.07C502.07 18.52 501.814 16.952 501.302 15.608C500.79 14.264 500.006 13.208 498.95 12.44C497.926 11.672 496.598 11.288 494.966 11.288ZM521.45 8.984C523.658 8.984 525.482 9.496 526.922 10.52C528.394 11.512 529.498 12.888 530.234 14.648C531.002 16.408 531.386 18.44 531.386 20.744V22.568H513.146C513.146 25.992 513.93 28.6 515.498 30.392C517.098 32.184 519.354 33.08 522.266 33.08C523.866 33.08 525.258 32.952 526.442 32.696C527.626 32.44 528.922 31.992 530.33 31.352V33.848C529.05 34.424 527.786 34.84 526.538 35.096C525.29 35.352 523.834 35.48 522.17 35.48C519.642 35.48 517.482 34.952 515.69 33.896C513.93 32.84 512.586 31.336 511.658 29.384C510.762 27.4 510.314 25.096 510.314 22.472C510.314 19.848 510.746 17.528 511.61 15.512C512.474 13.496 513.738 11.912 515.402 10.76C517.066 9.576 519.082 8.984 521.45 8.984ZM521.45 11.288C519.082 11.288 517.178 12.072 515.738 13.64C514.298 15.176 513.45 17.4 513.194 20.312H528.554C528.554 18.52 528.298 16.952 527.786 15.608C527.274 14.264 526.49 13.208 525.434 12.44C524.41 11.672 523.082 11.288 521.45 11.288ZM548.751 9.032C549.391 9.032 549.999 9.08 550.575 9.176C551.183 9.24 551.727 9.336 552.207 9.464L551.823 11.96C551.311 11.832 550.799 11.736 550.287 11.672C549.775 11.576 549.215 11.528 548.607 11.528C547.455 11.528 546.415 11.752 545.487 12.2C544.559 12.648 543.759 13.288 543.087 14.12C542.415 14.952 541.903 15.944 541.551 17.096C541.199 18.248 541.023 19.544 541.023 20.984V35H538.287V9.464H540.591L540.879 14.264H541.023C541.439 13.272 541.999 12.392 542.703 11.624C543.439 10.824 544.319 10.2 545.343 9.752C546.367 9.272 547.503 9.032 548.751 9.032ZM573.209 28.232C573.209 29.768 572.825 31.08 572.057 32.168C571.289 33.256 570.169 34.088 568.697 34.664C567.225 35.208 565.433 35.48 563.321 35.48C561.561 35.48 559.993 35.32 558.617 35C557.241 34.68 556.073 34.296 555.113 33.848V31.208C556.265 31.784 557.561 32.264 559.001 32.648C560.441 33 561.897 33.176 563.369 33.176C565.929 33.176 567.769 32.76 568.889 31.928C570.009 31.064 570.569 29.896 570.569 28.424C570.569 27.464 570.297 26.68 569.753 26.072C569.241 25.432 568.457 24.872 567.401 24.392C566.377 23.88 565.097 23.368 563.561 22.856C561.993 22.312 560.601 21.768 559.385 21.224C558.169 20.648 557.225 19.928 556.553 19.064C555.881 18.2 555.545 17.016 555.545 15.512C555.545 13.464 556.377 11.864 558.041 10.712C559.705 9.56 561.929 8.984 564.713 8.984C566.249 8.984 567.673 9.128 568.985 9.416C570.329 9.704 571.545 10.088 572.633 10.568L571.673 12.824C571.033 12.536 570.313 12.28 569.513 12.056C568.713 11.8 567.897 11.608 567.065 11.48C566.233 11.352 565.401 11.288 564.569 11.288C562.553 11.288 560.985 11.64 559.865 12.344C558.745 13.048 558.185 14.072 558.185 15.416C558.185 16.44 558.441 17.256 558.953 17.864C559.497 18.44 560.281 18.936 561.305 19.352C562.361 19.768 563.625 20.248 565.097 20.792C566.601 21.304 567.961 21.848 569.177 22.424C570.425 23 571.401 23.736 572.105 24.632C572.841 25.528 573.209 26.728 573.209 28.232ZM611.635 26.12C611.635 28.168 611.123 29.896 610.099 31.304C609.107 32.68 607.715 33.72 605.923 34.424C604.131 35.128 602.099 35.48 599.827 35.48C598.419 35.48 597.155 35.4 596.035 35.24C594.915 35.112 593.891 34.952 592.963 34.76C592.035 34.536 591.203 34.28 590.467 33.992V31.208C591.683 31.688 593.091 32.12 594.691 32.504C596.291 32.856 598.051 33.032 599.971 33.032C601.731 33.032 603.267 32.776 604.579 32.264C605.923 31.752 606.963 31 607.699 30.008C608.467 29.016 608.851 27.768 608.851 26.264C608.851 24.888 608.531 23.768 607.891 22.904C607.283 22.04 606.323 21.288 605.011 20.648C603.731 19.976 602.083 19.304 600.067 18.632C598.627 18.12 597.331 17.592 596.179 17.048C595.059 16.504 594.099 15.864 593.299 15.128C592.499 14.392 591.891 13.528 591.475 12.536C591.059 11.544 590.851 10.344 590.851 8.936C590.851 7.048 591.331 5.464 592.291 4.184C593.251 2.904 594.547 1.928 596.179 1.256C597.843 0.583999 599.715 0.247998 601.795 0.247998C603.459 0.247998 605.043 0.407998 606.547 0.727998C608.051 1.016 609.475 1.464 610.819 2.072L609.907 4.472C608.563 3.896 607.203 3.464 605.827 3.176C604.451 2.888 603.075 2.744 601.699 2.744C600.099 2.744 598.691 2.984 597.475 3.464C596.291 3.912 595.363 4.6 594.691 5.528C594.019 6.424 593.683 7.544 593.683 8.888C593.683 10.36 594.003 11.544 594.643 12.44C595.283 13.336 596.211 14.088 597.427 14.696C598.643 15.272 600.131 15.864 601.891 16.472C603.907 17.176 605.635 17.928 607.075 18.728C608.547 19.496 609.667 20.456 610.435 21.608C611.235 22.76 611.635 24.264 611.635 26.12ZM639.662 22.232C639.662 24.216 639.406 26.024 638.894 27.656C638.414 29.256 637.678 30.648 636.686 31.832C635.726 32.984 634.526 33.88 633.086 34.52C631.646 35.16 629.998 35.48 628.142 35.48C626.382 35.48 624.798 35.176 623.39 34.568C622.014 33.928 620.83 33.032 619.838 31.88C618.846 30.696 618.094 29.288 617.582 27.656C617.07 26.024 616.814 24.216 616.814 22.232C616.814 19.448 617.262 17.08 618.158 15.128C619.086 13.144 620.414 11.624 622.142 10.568C623.902 9.512 625.982 8.984 628.382 8.984C630.814 8.984 632.862 9.544 634.526 10.664C636.222 11.752 637.502 13.288 638.366 15.272C639.23 17.256 639.662 19.576 639.662 22.232ZM619.646 22.232C619.646 24.408 619.95 26.328 620.558 27.992C621.166 29.624 622.11 30.888 623.39 31.784C624.67 32.68 626.27 33.128 628.19 33.128C630.174 33.128 631.806 32.68 633.086 31.784C634.366 30.856 635.31 29.576 635.918 27.944C636.526 26.28 636.83 24.376 636.83 22.232C636.83 20.088 636.542 18.2 635.966 16.568C635.39 14.936 634.478 13.656 633.23 12.728C631.982 11.8 630.35 11.336 628.334 11.336C625.422 11.336 623.246 12.296 621.806 14.216C620.366 16.136 619.646 18.808 619.646 22.232ZM656.839 35.48C654.343 35.48 652.215 34.968 650.455 33.944C648.727 32.888 647.399 31.384 646.471 29.432C645.575 27.48 645.127 25.128 645.127 22.376C645.127 19.496 645.639 17.064 646.663 15.08C647.719 13.096 649.159 11.592 650.983 10.568C652.807 9.512 654.951 8.984 657.415 8.984C658.631 8.984 659.767 9.112 660.823 9.368C661.911 9.592 662.871 9.896 663.703 10.28L662.983 12.584C662.119 12.232 661.191 11.96 660.199 11.768C659.207 11.544 658.263 11.432 657.367 11.432C655.319 11.432 653.591 11.88 652.183 12.776C650.807 13.64 649.751 14.888 649.015 16.52C648.311 18.152 647.959 20.104 647.959 22.376C647.959 24.488 648.263 26.36 648.871 27.992C649.511 29.592 650.487 30.84 651.799 31.736C653.111 32.632 654.791 33.08 656.839 33.08C658.087 33.08 659.255 32.952 660.343 32.696C661.463 32.44 662.487 32.104 663.415 31.688V34.184C662.583 34.536 661.623 34.84 660.535 35.096C659.447 35.352 658.215 35.48 656.839 35.48ZM672.131 9.464V35H669.443V9.464H672.131ZM670.787 0.00799847C671.395 0.00799847 671.859 0.199999 672.179 0.584C672.499 0.935999 672.659 1.432 672.659 2.072C672.659 2.744 672.499 3.272 672.179 3.656C671.859 4.008 671.395 4.184 670.787 4.184C670.211 4.184 669.763 4.008 669.443 3.656C669.123 3.272 668.963 2.744 668.963 2.072C668.963 1.432 669.123 0.935999 669.443 0.584C669.763 0.199999 670.211 0.00799847 670.787 0.00799847ZM690.247 8.984C692.455 8.984 694.279 9.496 695.719 10.52C697.191 11.512 698.295 12.888 699.031 14.648C699.799 16.408 700.183 18.44 700.183 20.744V22.568H681.943C681.943 25.992 682.727 28.6 684.295 30.392C685.895 32.184 688.151 33.08 691.063 33.08C692.663 33.08 694.055 32.952 695.239 32.696C696.423 32.44 697.719 31.992 699.127 31.352V33.848C697.847 34.424 696.583 34.84 695.335 35.096C694.087 35.352 692.631 35.48 690.967 35.48C688.439 35.48 686.279 34.952 684.487 33.896C682.727 32.84 681.383 31.336 680.455 29.384C679.559 27.4 679.111 25.096 679.111 22.472C679.111 19.848 679.543 17.528 680.407 15.512C681.271 13.496 682.535 11.912 684.199 10.76C685.863 9.576 687.879 8.984 690.247 8.984ZM690.247 11.288C687.879 11.288 685.975 12.072 684.535 13.64C683.095 15.176 682.247 17.4 681.991 20.312H697.351C697.351 18.52 697.095 16.952 696.583 15.608C696.071 14.264 695.287 13.208 694.231 12.44C693.207 11.672 691.879 11.288 690.247 11.288ZM714.283 33.176C714.987 33.176 715.659 33.128 716.299 33.032C716.939 32.904 717.499 32.76 717.979 32.6V34.808C717.499 35 716.891 35.16 716.155 35.288C715.451 35.416 714.699 35.48 713.899 35.48C712.491 35.48 711.291 35.224 710.299 34.712C709.307 34.168 708.539 33.336 707.995 32.216C707.483 31.096 707.227 29.656 707.227 27.896V11.672H703.483V10.136L707.227 9.272L708.235 3.368H709.963V9.464H717.835V11.672H709.963V27.8C709.963 29.56 710.315 30.904 711.019 31.832C711.723 32.728 712.811 33.176 714.283 33.176ZM719.172 9.464H722.1L728.148 25.352C728.5 26.28 728.82 27.144 729.108 27.944C729.396 28.744 729.652 29.496 729.876 30.2C730.1 30.872 730.292 31.496 730.452 32.072H730.596C730.82 31.336 731.124 30.392 731.508 29.24C731.892 28.056 732.34 26.776 732.852 25.4L738.804 9.464H741.732L730.212 39.56C729.636 41.032 728.996 42.296 728.292 43.352C727.588 44.408 726.756 45.208 725.796 45.752C724.836 46.328 723.684 46.616 722.34 46.616C721.732 46.616 721.172 46.568 720.66 46.472C720.18 46.408 719.716 46.312 719.268 46.184V43.88C719.684 43.976 720.1 44.056 720.516 44.12C720.964 44.216 721.46 44.264 722.004 44.264C722.9 44.264 723.684 44.072 724.356 43.688C725.028 43.336 725.62 42.776 726.132 42.008C726.644 41.272 727.108 40.344 727.524 39.224L729.204 34.904L719.172 9.464Z" fill="#D2D2D2"/>
</svg>
